<?xml version="1.0"?>
<svg width="189" height="33" xmlns="http://www.w3.org/2000/svg" xmlns:svg="http://www.w3.org/2000/svg">
 <g class="layer">
  <title>Layer 1</title>
  <path d="m0,19.51l0,2.44l6.72,0l0,1.22l3.66,0l0,1.25l2.17,0c0.18,0 0.25,0.05 0.24,0.24l0,0.96l1.28,0l0,0.96c0,0.19 0.05,0.24 0.24,0.24l3.43,0l0,3.66l1.21,0l0,1.25l1.21,0l0,1.21l4.85,0l0,-3.16l-2.42,0l0,-2.95l3.42,0l0,4.91l1.45,0l0,1.2l4.88,0l0,-3.16l-2.42,0l0,-4.16l1.2,0l0,-1.21l2.48,0l0,1.17l4.15,0l0,-2.4l4.89,0l0,-2.45l-2.95,0l0,-1.19l-1.24,0l0,-7.35l-1.21,0l0,-3.18l3.73,0l0,-1.7l-2.23,0l0,-1.73l4.16,0l0,-4.36l-3.44,0l0,-1.22l-3.45,0l0,1.17l-2.43,0l0,1.25l-1.23,0l0,9.77l-3.65,0l0,-1.17l-2.47,0l0,1.17l-3.65,0l0,1.22l-2.43,0l0,1.23l-1.22,0l0,1.22l-2.43,0l0,1.22l-1.26,0l0,1.22l-12.17,0l0,1.23l-3.07,-0.02zm37.38,-16.7l1.22,0l0,1.22l-1.22,0l0,-1.22zm-1.35,19.17l1.7,0l0,1.2l-1.7,0l0,-1.2z" fill="#9EFF00" id="svg_2"/>
  <text fill="#000000" font-family="Serif" font-size="24" id="svg_4" stroke-width="0" text-anchor="middle" transform="rotate(8.8321 52.1719 0.833316)" x="51.83" xml:space="preserve" y="8.83"/>
  <text fill="#ffffff" font-family="Serif" font-size="24" id="svg_5" stroke-width="0" style="cursor: move;" text-anchor="middle" x="104.83" xml:space="preserve" y="23.83">Technol</text>
 </g>
</svg>